<?xml version="1.0" encoding="UTF-8" standalone="no"?>
<!DOCTYPE svg PUBLIC "-//W3C//DTD SVG 1.1//EN" "http://www.w3.org/Graphics/SVG/1.1/DTD/svg11.dtd">
<svg width="100%" height="100%" viewBox="0 0 361 294" version="1.1" xmlns="http://www.w3.org/2000/svg" xmlns:xlink="http://www.w3.org/1999/xlink" xml:space="preserve" xmlns:serif="http://www.serif.com/" style="fill-rule:evenodd;clip-rule:evenodd;stroke-linejoin:round;stroke-miterlimit:2;">
    <g id="pC0V7QNUw" transform="matrix(2.70662,0,0,2.70662,-63.8323,-55.8866)">
        <path d="M58.843,127.002C57.006,126.615 55.828,125.982 54.633,124.77C54.088,124.207 53.701,123.609 53.288,122.678C52.866,121.702 52.761,121.28 52.603,119.944C52.497,118.978 52.497,118.696 52.603,117.817C52.761,116.578 52.91,115.972 53.297,115.049C53.745,114.003 54.009,113.599 54.782,112.79C56.259,111.252 57.419,110.698 59.783,110.399C61.102,110.232 62.93,110.593 64.274,111.287C66.533,112.465 67.764,114.864 67.764,118.099C67.764,119.188 67.702,119.461 67.421,119.681C67.315,119.76 66.059,119.786 62.227,119.795C59.449,119.795 57.085,119.821 56.979,119.848C56.417,119.997 56.892,121.711 57.771,122.669C58.201,123.135 58.649,123.407 59.405,123.653C59.871,123.803 60.188,123.838 61.251,123.838C62.815,123.838 63.809,123.618 64.951,123.021C65.514,122.73 65.742,122.651 65.892,122.704C66.129,122.792 67.148,124.488 67.148,124.796C67.148,125.121 66.586,125.596 65.602,126.097C64.072,126.879 62.736,127.178 60.82,127.169C60.012,127.169 59.379,127.116 58.843,127.002ZM63.571,116.464C63.545,115.69 63.29,115.084 62.754,114.53C62.288,114.056 61.875,113.862 61.066,113.739C60.258,113.625 59.335,113.766 58.649,114.108C57.762,114.565 56.962,115.734 56.883,116.701L56.848,117.158L60.214,117.141L63.589,117.114L63.571,116.464Z" style="fill:rgb(29,77,88);fill-rule:nonzero;"/>
    </g>
    <g id="pEhPwlPg9" transform="matrix(2.70662,0,0,2.70662,-63.8323,-55.8866)">
        <path d="M76.377,127.055C74.672,126.677 73.608,125.921 72.976,124.62C72.404,123.469 72.396,123.354 72.343,118.547C72.316,116.147 72.255,114.152 72.22,114.108C72.176,114.073 71.613,114.021 70.963,113.994C69.425,113.933 69.46,113.968 69.425,112.544C69.39,110.593 69.293,110.716 70.937,110.654C72.185,110.61 72.193,110.61 72.255,110.391C72.29,110.268 72.316,109.468 72.325,108.606C72.334,106.515 72.185,106.655 74.399,106.585C76.017,106.532 76.078,106.532 76.228,106.708C76.359,106.866 76.377,107.112 76.386,108.536C76.395,109.433 76.421,110.268 76.456,110.391L76.518,110.61L78.478,110.654C80.93,110.707 80.771,110.602 80.771,112.254C80.771,113.563 80.684,113.854 80.235,113.941C80.086,113.968 79.181,113.994 78.223,113.994L76.491,113.994L76.43,114.267C76.342,114.732 76.368,122.01 76.465,122.353C76.711,123.223 77.344,123.662 78.354,123.662C78.688,123.653 79.225,123.601 79.532,123.539C80.104,123.416 80.385,123.451 80.569,123.68C80.631,123.741 80.833,124.251 81.035,124.805C81.501,126.114 81.483,126.316 80.815,126.615C79.761,127.099 77.555,127.318 76.377,127.055Z" style="fill:rgb(29,77,88);fill-rule:nonzero;"/>
    </g>
    <g id="pWbWCiuyI" transform="matrix(2.70662,0,0,2.70662,-63.8323,-55.8866)">
        <path d="M87.328,127.028C85.315,126.668 83.909,125.455 83.417,123.662C82.934,121.939 83.382,120.34 84.674,119.109C85.553,118.283 86.687,117.721 88.11,117.431C88.356,117.387 88.673,117.316 88.813,117.29C88.963,117.255 90.018,117.202 91.169,117.176C92.883,117.123 93.27,117.088 93.34,116.982C93.384,116.912 93.428,116.578 93.428,116.253C93.428,115.778 93.375,115.55 93.19,115.172C92.918,114.601 92.61,114.319 91.934,114.003C91.468,113.783 91.389,113.774 90.044,113.783C88.805,113.801 88.541,113.827 87.847,114.029C87.416,114.161 86.774,114.398 86.432,114.574C85.465,115.049 85.395,115.022 84.841,113.906C84.138,112.5 84.199,112.298 85.491,111.639C86.801,110.979 87.653,110.725 89.552,110.426C91.775,110.092 94.087,110.549 95.511,111.621C96.328,112.245 97.005,113.432 97.304,114.785C97.453,115.471 97.471,115.972 97.471,120.946C97.471,126.299 97.471,126.369 97.286,126.598L97.11,126.826L95.73,126.826C93.99,126.826 93.946,126.809 93.806,126C93.744,125.666 93.674,125.376 93.656,125.358C93.639,125.332 93.234,125.561 92.76,125.868C91.002,126.984 89.2,127.371 87.328,127.028ZM90.659,124.014C91.626,123.794 92.241,123.504 92.725,123.038C93.331,122.449 93.428,122.133 93.428,120.753L93.428,119.558L93.155,119.496C93.006,119.47 92.355,119.443 91.705,119.443C89.815,119.443 88.585,119.804 87.882,120.56C87.442,121.034 87.275,121.421 87.275,121.957C87.275,123.082 87.812,123.724 89.033,124.066C89.578,124.216 89.754,124.207 90.659,124.014Z" style="fill:rgb(29,77,88);fill-rule:nonzero;"/>
    </g>
    <g id="p6166RRkQ" transform="matrix(2.70662,0,0,2.70662,-63.8323,-55.8866)">
        <path d="M124.98,127.011C121.676,126.299 119.435,124.066 118.837,120.85C118.521,119.145 118.529,118.02 118.89,116.411C119.276,114.68 120.27,113.08 121.57,112.087C122.186,111.612 123.653,110.883 124.365,110.698C125.956,110.285 126.932,110.224 128.276,110.435C129.894,110.698 131.054,111.164 132.144,111.99C133.049,112.676 133.752,113.546 134.297,114.653C134.815,115.726 134.982,116.35 135.123,117.782C135.352,120.103 134.842,122.273 133.682,123.961C132.592,125.534 130.939,126.606 128.979,127.011C127.925,127.23 126.026,127.23 124.98,127.011ZM128.382,123.513C129.34,123.231 130.359,122.106 130.772,120.894C131.063,120.041 131.142,118.081 130.913,117.141C130.57,115.699 129.832,114.706 128.698,114.161C128.171,113.906 127.995,113.862 127.213,113.836C125.745,113.774 124.884,114.091 124.022,115.005C123.53,115.523 123.135,116.279 122.915,117.114C122.739,117.791 122.739,119.558 122.915,120.305C123.223,121.605 124.11,122.827 125.121,123.319C125.991,123.75 127.327,123.829 128.382,123.513Z" style="fill:rgb(29,77,88);fill-rule:nonzero;"/>
    </g>
    <g id="p1Bc30jQeI" transform="matrix(2.70662,0,0,2.70662,-63.8323,-55.8866)">
        <path d="M143.965,127.011C141.952,126.571 140.335,125.596 139.271,124.163C138.305,122.871 137.9,121.737 137.637,119.602C137.54,118.793 137.61,117.853 137.874,116.499C138.199,114.803 139.104,113.265 140.396,112.21C142.005,110.892 144.694,110.118 146.716,110.382C148.5,110.619 149.678,111.023 150.891,111.814C152.578,112.922 153.633,114.574 154.081,116.789C154.468,118.723 154.187,121.315 153.404,122.915C152.438,124.893 150.697,126.299 148.482,126.888C147.296,127.204 145.107,127.257 143.965,127.011ZM146.707,123.662C148.157,123.451 149.265,122.52 149.766,121.078C150.073,120.217 150.223,118.898 150.108,118.09C149.959,116.991 149.871,116.64 149.528,115.937C149.142,115.119 148.588,114.557 147.788,114.161C147.182,113.862 147.164,113.862 145.986,113.862L144.791,113.862L144.123,114.196C143.314,114.592 142.69,115.225 142.304,116.051C141.891,116.93 141.768,117.536 141.768,118.758C141.768,120.472 142.128,121.509 143.068,122.537C143.965,123.504 145.187,123.882 146.707,123.662Z" style="fill:rgb(29,77,88);fill-rule:nonzero;"/>
    </g>
    <g id="prDTkkvo9" transform="matrix(2.70662,0,0,2.70662,-63.8323,-55.8866)">
        <path d="M26.183,126.659C25.937,126.457 25.937,126.642 26.095,121.553C26.2,118.31 26.271,115.875 26.455,109.688C26.561,105.926 26.613,105.293 26.842,105.038C27,104.862 27.088,104.854 28.819,104.854C30.059,104.862 30.709,104.897 30.885,104.968C31.166,105.091 31.772,106.154 33.451,109.468C33.917,110.391 34.33,111.182 34.374,111.234C34.418,111.287 34.866,112.122 35.367,113.08C37.397,116.991 37.679,117.501 37.811,117.51C37.942,117.51 38.32,116.895 38.997,115.576C40.799,112.078 42.214,109.371 42.275,109.292C42.311,109.248 42.803,108.281 43.374,107.156C44.191,105.53 44.464,105.082 44.657,104.985C44.851,104.88 45.299,104.854 46.696,104.854C48.911,104.854 48.867,104.836 48.973,105.873C49.017,106.26 49.087,107.798 49.14,109.292C49.184,110.795 49.263,113.124 49.307,114.478C49.535,121.201 49.579,122.361 49.623,124.295L49.676,126.378L49.447,126.606C49.228,126.826 49.219,126.826 47.733,126.826C46.213,126.826 45.87,126.765 45.738,126.483C45.694,126.404 45.633,125.174 45.598,123.75C45.404,116.631 45.352,115.146 45.272,113.643C45.229,112.746 45.185,111.99 45.185,111.955C45.149,111.639 44.481,112.746 43.462,114.785C43.137,115.436 42.838,116.016 42.803,116.06C42.768,116.112 41.977,117.659 41.054,119.505C39.647,122.317 39.331,122.889 39.111,123.003C38.777,123.179 36.888,123.188 36.58,123.012C36.369,122.897 36.193,122.563 32.88,116.06C32.036,114.416 31.228,112.878 31.078,112.632C30.92,112.395 30.771,112.122 30.735,112.043C30.639,111.779 30.516,111.867 30.454,112.263C30.393,112.685 30.27,116.851 30.164,122.607C30.12,124.761 30.076,126.527 30.067,126.536C30.067,126.545 29.944,126.615 29.795,126.694C29.593,126.8 29.206,126.826 27.967,126.826C26.543,126.826 26.367,126.809 26.183,126.659Z" style="fill:rgb(29,77,88);fill-rule:nonzero;"/>
    </g>
    <g id="p4In1wdEI" transform="matrix(2.70662,0,0,2.70662,-63.8323,-55.8866)">
        <path d="M101.206,126.606C100.995,126.404 100.986,126.352 100.986,125.174C100.986,123.75 101.004,123.706 102.006,122.291C102.349,121.816 103.509,120.173 104.59,118.652C105.671,117.132 107.569,114.46 108.809,112.72C111.146,109.433 111.595,108.756 111.489,108.65C111.463,108.615 109.274,108.571 106.638,108.545L101.848,108.501L101.681,108.29C101.531,108.105 101.514,107.93 101.514,106.682C101.514,105.319 101.522,105.284 101.733,105.073L101.944,104.854L109.16,104.854C115.286,104.854 116.411,104.871 116.622,104.977C116.842,105.091 116.877,105.17 116.93,105.653C117.097,107.262 116.956,108.079 116.394,108.879C116.174,109.204 115.313,110.417 114.486,111.577C113.669,112.737 112.597,114.249 112.113,114.943C111.621,115.638 111.067,116.429 110.865,116.701C110.672,116.974 110.118,117.765 109.635,118.45C109.16,119.136 108.343,120.305 107.824,121.043C106.857,122.414 106.488,123.038 106.576,123.126C106.603,123.152 108.958,123.179 111.814,123.179L117,123.188L117.167,123.39C117.316,123.574 117.334,123.75 117.334,124.998C117.334,126.36 117.325,126.396 117.114,126.606L116.903,126.826L101.417,126.826L101.206,126.606Z" style="fill:rgb(29,77,88);fill-rule:nonzero;"/>
    </g>
    <g id="p9C5Axf3x" transform="matrix(2.70662,0,0,2.70662,-63.8323,-55.8866)">
        <path d="M84.023,93.498C83.663,93.463 82.986,93.384 82.529,93.331C80.112,93.05 76.887,92.18 74.61,91.204C71.807,90 69.425,88.576 66.999,86.634C65.979,85.825 63.079,82.951 62.323,82.002C61.356,80.789 60.328,79.339 59.66,78.24C57.375,74.452 55.731,69.715 55.195,65.347C55.143,64.916 55.063,64.239 55.02,63.853C54.905,62.903 54.905,58.386 55.028,57.322C55.872,49.605 58.79,42.899 63.861,37.002C64.644,36.097 67.395,33.363 68.247,32.651C72.299,29.25 77.238,26.438 81.914,24.855C87.425,22.992 93.006,22.271 98.174,22.755C102.428,23.15 105.961,24.135 109.784,26.007C112.518,27.343 114.223,28.538 116.982,31.078C117.747,31.772 118.978,32.713 121.025,34.137C123.548,35.903 124.453,36.659 125.147,37.608C125.666,38.312 125.851,38.663 126,39.243C126.237,40.104 126.114,40.922 125.596,41.933C125.341,42.451 125.139,42.732 124.321,43.752C124.154,43.963 124.014,44.183 124.014,44.244C124.014,44.306 124.339,44.648 124.726,45C125.587,45.782 126.492,46.881 127.011,47.795C127.696,48.99 128.232,50.871 128.232,52.084C128.232,52.541 128.224,52.559 127.995,52.559C127.784,52.559 127.705,52.479 127.494,52.066C127.239,51.574 126.791,51.152 126.536,51.152C126.466,51.152 126.079,51.53 125.692,51.987C125.297,52.444 124.91,52.822 124.831,52.822C124.682,52.822 124.69,52.392 124.901,51.064C125.104,49.702 124.857,48.375 124.181,47.224C123.812,46.608 122.739,45.457 122.476,45.387C122.37,45.36 121.948,45.439 121.544,45.563C120.322,45.923 119.804,46.002 118.564,45.993C117.308,45.993 116.341,45.853 114.082,45.343C110.092,44.446 106.743,43.453 104.194,42.416C102.164,41.59 101.531,41.124 100.213,39.524C99.176,38.268 98.534,37.74 97.418,37.187C96.539,36.756 96.021,36.606 94.843,36.431C93.393,36.22 92.241,36.264 90.088,36.615C86.089,37.274 81.782,39.261 78.003,42.214C76.816,43.146 74.347,45.615 73.424,46.802C71.648,49.096 70.4,51.407 69.469,54.176C67.667,59.528 67.975,65.057 70.365,69.873C72.519,74.215 76.034,77.379 80.859,79.321C83.206,80.262 86.467,80.754 88.761,80.517C91.995,80.174 94.113,79.444 96.521,77.845C97.532,77.186 97.998,76.79 98.903,75.894C101.188,73.608 102.287,71.385 102.665,68.282C102.876,66.542 102.419,64.415 101.417,62.499C100.811,61.33 100.336,60.715 99.255,59.669C98.332,58.772 97.69,58.324 96.478,57.735C95.229,57.129 94.113,56.865 92.795,56.865C91.336,56.865 90.589,57.023 89.411,57.612C88.242,58.192 87.732,58.693 87.161,59.845L86.792,60.583L86.792,61.603C86.792,62.578 86.801,62.648 87.082,63.211C87.407,63.87 88.084,64.556 88.726,64.863C89.473,65.224 89.965,65.303 91.582,65.303C93.885,65.312 94.772,65.566 95.607,66.489C96.715,67.702 96.873,69.152 96.064,70.796C95.265,72.422 93.902,73.688 91.995,74.575C90.422,75.296 89.06,75.542 86.906,75.472C85.667,75.437 85.219,75.384 84.48,75.199C82.696,74.751 81.018,73.951 79.541,72.861C78.812,72.325 77.071,70.532 76.544,69.785C74.364,66.7 73.459,62.552 74.127,58.667C74.391,57.111 74.681,56.127 75.252,54.8C76.219,52.576 77.168,51.223 79.181,49.21C80.464,47.927 80.912,47.549 81.817,46.951C84.463,45.202 86.985,44.271 90.413,43.77C91.538,43.611 94.43,43.655 95.783,43.866C100.688,44.613 105.082,46.828 108.659,50.353C110.259,51.917 111.129,52.989 112.192,54.712C113.906,57.48 114.864,60.108 115.356,63.404C115.541,64.6 115.576,65.145 115.576,66.946C115.576,69.768 115.295,71.78 114.548,74.355C113.203,78.996 110.268,83.505 106.559,86.625C103.729,89.007 100.916,90.642 97.383,91.96C95.634,92.61 92.9,93.243 90.738,93.507C89.815,93.621 84.999,93.612 84.023,93.498ZM89.771,90.791C91.714,90.589 92.795,90.396 94.377,89.947C99.817,88.427 104.774,85.21 107.982,81.123C110.259,78.214 111.621,75.445 112.465,72.035C112.922,70.172 113.063,69.021 113.063,67.061C113.071,61.515 111.015,56.61 106.963,52.55C103.579,49.157 99.492,47.083 94.922,46.45C92.602,46.134 89.728,46.362 87.636,47.03C84.059,48.182 81.105,50.361 79.031,53.376C77.353,55.811 76.447,58.816 76.588,61.523C76.764,65.118 78.53,68.379 81.404,70.4C82.872,71.438 84.7,72.114 86.616,72.334C89.358,72.642 92.435,71.306 93.41,69.39C93.727,68.748 93.674,68.379 93.226,68.142C92.997,68.019 92.575,67.975 90.967,67.931C88.761,67.86 88.26,67.772 87.249,67.271C85.131,66.226 83.856,64.274 83.584,61.646C83.25,58.447 84.665,55.828 87.539,54.325C88.497,53.824 89.007,53.64 89.974,53.446C96.214,52.216 102.243,55.608 104.722,61.752C105.346,63.299 105.645,64.986 105.645,67.017C105.645,68.748 105.539,69.706 105.196,71.016C104.388,74.101 102.639,76.834 100.063,79.084C98.824,80.165 97.857,80.789 96.108,81.65C93.287,83.039 90.896,83.584 87.539,83.584C85.57,83.584 84.744,83.505 82.969,83.145C79.638,82.477 75.929,80.754 73.345,78.671C72.431,77.933 70.998,76.526 70.207,75.586C67.562,72.439 65.865,68.353 65.338,63.853C65.18,62.499 65.162,59.59 65.303,58.271C66.085,50.871 69.838,44.156 75.867,39.357C80.016,36.053 84.797,34.014 90.483,33.126C90.896,33.064 92.057,33.012 93.296,33.012C95.273,33.012 95.467,33.029 96.46,33.249C97.884,33.574 98.253,33.697 99.229,34.198C100.318,34.752 100.846,35.2 102.138,36.633C103.535,38.171 104.37,38.786 106.022,39.498C108.835,40.702 116.604,42.768 118.978,42.943C120.92,43.084 122.66,42.082 123.135,40.553C123.39,39.709 123.152,39.129 122.106,38.136C121.421,37.477 121.228,37.336 118.784,35.71C116.42,34.128 115.453,33.407 114.302,32.344C109.345,27.773 101.487,25.066 93.999,25.348C83.391,25.743 72.958,30.744 65.821,38.848C63.545,41.432 61.242,45.193 59.81,48.647C55.371,59.344 57.217,71.613 64.591,80.508C65.285,81.343 67.078,83.153 67.948,83.892C69.996,85.632 71.903,86.889 74.136,87.979C76.649,89.2 78.987,89.965 81.65,90.439C84.744,90.984 86.95,91.081 89.771,90.791Z" style="fill:rgb(29,77,88);fill-rule:nonzero;"/>
    </g>
    <g id="pCsotbzvG" transform="matrix(2.70662,0,0,2.70662,-63.8323,-55.8866)">
        <path d="M110.259,37.582C109.898,37.424 109.371,36.853 109.204,36.457C109.055,36.079 109.028,35.095 109.169,34.603C109.283,34.172 109.811,33.592 110.259,33.39C110.505,33.275 110.821,33.223 111.322,33.223C112.228,33.223 112.808,33.486 113.229,34.084C113.493,34.471 113.511,34.55 113.537,35.385C113.563,36.141 113.546,36.325 113.396,36.615C113.168,37.055 112.808,37.397 112.395,37.564C111.981,37.74 110.637,37.749 110.259,37.582Z" style="fill:rgb(29,77,88);fill-rule:nonzero;"/>
    </g>
    <g id="pLXVT6P8T" transform="matrix(2.70662,0,0,2.70662,-63.8323,-55.8866)">
        <path d="M85.034,91.169C83.083,91.046 80.438,90.589 78.53,90.044C73.705,88.655 69.486,86.115 65.865,82.424C64.617,81.158 64.134,80.587 63.044,79.093C56.707,70.444 55.345,58.5 59.546,48.384C62.051,42.337 65.962,37.301 71.341,33.205C79.532,26.956 90.36,23.994 99.8,25.409C105.539,26.262 110.865,28.67 114.565,32.08C115.717,33.144 116.684,33.864 119.048,35.446C120.208,36.22 121.377,37.02 121.641,37.222C122.273,37.705 123.152,38.646 123.328,39.032C123.926,40.307 123.231,41.906 121.729,42.706C120.208,43.515 118.758,43.427 113.897,42.24C110.549,41.432 107.411,40.474 105.759,39.762C104.106,39.05 103.271,38.435 101.874,36.896C100.582,35.464 100.055,35.016 98.965,34.462C97.989,33.961 97.611,33.838 96.196,33.513C95.229,33.302 94.983,33.275 93.296,33.284C92.285,33.284 91.134,33.328 90.747,33.39C86.001,34.119 81.888,35.666 78.223,38.101C73.354,41.326 69.601,45.844 67.474,51.021C66.094,54.404 65.479,57.437 65.479,60.899C65.47,68.695 68.933,75.34 75.19,79.559C77.906,81.387 81.914,82.846 85.298,83.232C87.214,83.443 90.237,83.268 91.951,82.837C93.902,82.345 96.381,81.264 98.042,80.183C99.483,79.233 101.004,77.81 102.19,76.289C105.056,72.598 106.058,67.957 104.941,63.501C104.08,60.047 101.531,56.76 98.394,55.028C96.434,53.938 93.841,53.332 91.846,53.49C90.94,53.561 89.473,53.842 88.919,54.062C85.412,55.441 83.496,58.271 83.856,61.541C84.138,64.028 85.447,65.988 87.513,67.008C88.523,67.509 89.024,67.597 91.23,67.667C92.821,67.711 93.261,67.755 93.48,67.869C94.447,68.388 93.806,70.128 92.241,71.244C89.701,73.055 85.772,73.116 82.354,71.402C80.508,70.479 78.688,68.669 77.687,66.762C76.799,65.057 76.395,63.51 76.315,61.523C76.175,57.823 77.405,54.501 80.007,51.521C82.301,48.885 85.816,46.898 89.209,46.327C94.034,45.501 98.745,46.397 102.946,48.929C107.068,51.416 110.461,55.38 112.017,59.546C112.588,61.066 112.913,62.341 113.177,64.099C113.388,65.452 113.388,68.634 113.177,70.058C112.184,76.799 108.448,82.617 102.568,86.563C101.065,87.574 99.896,88.207 98.218,88.928C95.309,90.185 93.208,90.729 90.035,91.055C88.488,91.213 86.467,91.266 85.034,91.169ZM112.131,37.301C112.544,37.134 112.904,36.791 113.133,36.352C113.273,36.079 113.3,35.877 113.273,35.385C113.238,34.576 112.904,34.058 112.219,33.715C110.865,33.038 109.336,33.996 109.336,35.534C109.336,36.185 109.898,37.037 110.522,37.318C110.883,37.477 111.735,37.468 112.131,37.301Z" style="fill:rgb(67,158,167);fill-rule:nonzero;"/>
    </g>
    <g id="pEWJC76D8" transform="matrix(2.70662,0,0,2.70662,-63.8323,-55.8866)">
        <path d="M64.775,84.595C64.512,84.331 64.327,84.111 64.354,84.111C64.424,84.111 65.303,84.964 65.303,85.034C65.303,85.122 65.25,85.078 64.775,84.595Z" style="fill:rgb(67,158,167);fill-rule:nonzero;"/>
    </g>
    <g id="piZjnUh9x" transform="matrix(2.70662,0,0,2.70662,-63.8323,-55.8866)">
        <path d="M124.734,52.717C124.761,52.655 124.849,52.585 124.928,52.576C125.033,52.55 125.077,52.585 125.051,52.664C125.024,52.726 124.937,52.796 124.857,52.805C124.752,52.831 124.708,52.796 124.734,52.717Z" style="fill:rgb(67,158,167);fill-rule:nonzero;"/>
    </g>
    <g id="p1EHY0DcJI" transform="matrix(2.70662,0,0,2.70662,-63.8323,-55.8866)">
        <path d="M127.749,52.559C127.626,52.321 127.626,52.295 127.749,52.295C127.828,52.295 127.96,52.225 128.039,52.146C128.18,52.005 128.188,52.014 128.215,52.233C128.241,52.479 128.101,52.822 127.969,52.822C127.925,52.822 127.828,52.708 127.749,52.559Z" style="fill:rgb(67,158,167);fill-rule:nonzero;"/>
    </g>
</svg>
